<?xml version="1.0" encoding="UTF-8" standalone="no"?>
<!-- Created with Inkscape (http://www.inkscape.org/) -->

<svg
   width="256"
   height="256"
   viewBox="0 0 67.733332 67.733333"
   version="1.1"
   id="svg1"
   xml:space="preserve"
   xmlns="http://www.w3.org/2000/svg"
   xmlns:svg="http://www.w3.org/2000/svg"><defs
     id="defs1" /><g
     id="layer1"><rect
       style="fill:#831f82;fill-opacity:1;stroke:none;stroke-width:0.794637;stroke-dasharray:none"
       id="rect25"
       width="67.73333"
       height="67.73333"
       x="0"
       y="0" /><g
       id="g25"
       transform="translate(-4.9250788,-3.2479858)"><path
         id="rect1"
         style="fill:#ffffff;stroke:none;stroke-width:0.316577;stroke-dasharray:none"
         d="m 22.021399,37.561085 v 12.034706 h 0.0012 a 1.7194748,1.7194748 0 0 0 -0.0012,0.02115 1.7194748,1.7194748 0 0 0 1.719599,1.719599 1.7194748,1.7194748 0 0 0 1.719599,-1.719599 1.7194748,1.7194748 0 0 0 -6.21e-4,-0.02115 h 6.21e-4 V 37.561085 Z" /><path
         id="path3"
         style="fill:#ffffff;stroke:none;stroke-width:0.316577;stroke-dasharray:none"
         d="m 17.721185,37.561085 v 6.939966 h 0.0012 c -4.44e-4,0.0071 -8.46e-4,0.01409 -0.0012,0.02115 -6.8e-5,0.949737 0.769863,1.719668 1.719599,1.719599 0.949736,6.9e-5 1.719667,-0.769862 1.719599,-1.719599 -1.64e-4,-0.0071 -3.71e-4,-0.0141 -6.21e-4,-0.02115 h 6.21e-4 v -6.939966 z" /><path
         id="path4"
         style="fill:#ffffff;stroke:none;stroke-width:0.316577;stroke-dasharray:none"
         d="m 13.420972,37.561085 v 2.409357 h 0.0012 c -4.44e-4,0.0071 -8.46e-4,0.01409 -0.0012,0.02115 -6.9e-5,0.949736 0.769863,1.719667 1.719599,1.719598 0.949736,6.9e-5 1.719667,-0.769862 1.719599,-1.719598 -1.64e-4,-0.0071 -3.71e-4,-0.01411 -6.21e-4,-0.02115 h 6.21e-4 v -2.409357 z" /><path
         id="path5"
         style="fill:#ffffff;stroke:none;stroke-width:0.316577;stroke-dasharray:none"
         d="m 26.321613,37.561085 v 16.492604 h 0.0012 c -4.44e-4,0.0071 -8.46e-4,0.01409 -0.0012,0.02115 -6.9e-5,0.949737 0.769862,1.719668 1.719598,1.719599 0.949737,6.9e-5 1.719668,-0.769862 1.719599,-1.719599 -1.63e-4,-0.0071 -3.7e-4,-0.0141 -6.21e-4,-0.02115 h 6.21e-4 V 37.561085 Z" /><path
         id="path6"
         style="fill:#ffffff;stroke:none;stroke-width:0.316577;stroke-dasharray:none"
         d="m 30.621826,37.561085 v 9.702991 h 0.0012 c -4.44e-4,0.0071 -8.46e-4,0.01409 -0.0012,0.02114 -6.9e-5,0.949737 0.769862,1.719668 1.719599,1.719599 0.949736,6.9e-5 1.719667,-0.769862 1.719598,-1.719599 -1.63e-4,-0.0071 -3.7e-4,-0.0141 -6.21e-4,-0.02114 h 6.21e-4 v -9.702991 z" /><path
         id="path7"
         style="fill:#ffffff;stroke:none;stroke-width:0.316577;stroke-dasharray:none"
         d="m 34.92204,37.561085 v 5.085831 h 0.0012 c -4.45e-4,0.0071 -8.46e-4,0.01409 -0.0012,0.02115 -6.9e-5,0.949736 0.769863,1.719667 1.719599,1.719598 0.949736,6.9e-5 1.719667,-0.769862 1.719599,-1.719598 -1.64e-4,-0.0071 -3.71e-4,-0.01411 -6.21e-4,-0.02115 h 6.21e-4 v -5.085831 z" /><path
         id="path8"
         style="fill:#ffffff;stroke:none;stroke-width:0.316577;stroke-dasharray:none"
         d="m 39.222253,37.561085 v 10.53917 h 0.0012 c -4.44e-4,0.0071 -8.46e-4,0.01409 -0.0012,0.02115 -6.8e-5,0.949736 0.769863,1.719667 1.719599,1.719598 0.949736,6.9e-5 1.719667,-0.769862 1.719599,-1.719598 -1.64e-4,-0.0071 -3.71e-4,-0.01411 -6.21e-4,-0.02115 h 6.21e-4 v -10.53917 z" /><path
         id="path9"
         style="fill:#ffffff;stroke:none;stroke-width:0.316577;stroke-dasharray:none"
         d="M 43.522468,37.561085 V 49.62719 h 0.0012 c -4.44e-4,0.0071 -8.46e-4,0.01409 -0.0012,0.02115 -6.9e-5,0.949736 0.769862,1.719668 1.719598,1.719599 0.949737,6.9e-5 1.719668,-0.769863 1.719599,-1.719599 -1.63e-4,-0.0071 -3.7e-4,-0.01411 -6.21e-4,-0.02115 h 6.21e-4 V 37.561085 Z" /><path
         id="path10"
         style="fill:#ffffff;stroke:none;stroke-width:0.316577;stroke-dasharray:none"
         d="m 47.822681,37.561085 v 8.939524 h 0.0012 c -4.44e-4,0.0071 -8.46e-4,0.01409 -0.0012,0.02115 -6.9e-5,0.949736 0.769862,1.719667 1.719599,1.719599 0.949736,6.8e-5 1.719667,-0.769863 1.719598,-1.719599 -1.63e-4,-0.0071 -3.7e-4,-0.01411 -6.21e-4,-0.02115 h 6.21e-4 v -8.939524 z" /><path
         id="path11"
         style="fill:#ffffff;stroke:none;stroke-width:0.316577;stroke-dasharray:none"
         d="m 52.122894,37.561085 v 5.631164 h 0.0012 c -4.44e-4,0.0071 -8.46e-4,0.01409 -0.0012,0.02115 -6.9e-5,0.949736 0.769862,1.719668 1.719599,1.719599 0.949736,6.9e-5 1.719667,-0.769863 1.719598,-1.719599 -1.63e-4,-0.0071 -3.7e-4,-0.01411 -6.21e-4,-0.02115 h 6.21e-4 v -5.631164 z" /><path
         id="path12"
         style="fill:#ffffff;stroke:none;stroke-width:0.316577;stroke-dasharray:none"
         d="m 56.423108,37.561085 v 3.84974 h 0.0012 c -4.44e-4,0.0071 -8.46e-4,0.01409 -0.0012,0.02114 -6.8e-5,0.949736 0.769863,1.719667 1.719599,1.719599 0.949736,6.8e-5 1.719667,-0.769863 1.719599,-1.719599 -1.64e-4,-0.0071 -3.71e-4,-0.01411 -6.21e-4,-0.02114 h 6.21e-4 v -3.84974 z" /><path
         id="path13"
         style="fill:#ffffff;stroke:none;stroke-width:0.316577;stroke-dasharray:none"
         d="m 60.723321,37.561085 v 2.61365 h 0.0012 c -4.44e-4,0.0071 -8.46e-4,0.01409 -0.0012,0.02115 -6.8e-5,0.949736 0.769863,1.719667 1.719599,1.719599 0.949736,6.8e-5 1.719668,-0.769863 1.719599,-1.719599 -1.64e-4,-0.0071 -3.71e-4,-0.01411 -6.21e-4,-0.02115 h 6.21e-4 v -2.61365 z" /><path
         id="path14"
         style="fill:#ffffff;stroke:none;stroke-width:0.316577;stroke-dasharray:none"
         d="M 22.021399,36.668211 V 24.633504 h 0.0012 a 1.7194748,1.7194748 0 0 1 -0.0012,-0.02114 1.7194748,1.7194748 0 0 1 1.719599,-1.719599 1.7194748,1.7194748 0 0 1 1.719599,1.719599 1.7194748,1.7194748 0 0 1 -6.21e-4,0.02114 h 6.21e-4 v 12.034707 z" /><path
         id="path15"
         style="fill:#ffffff;stroke:none;stroke-width:0.316577;stroke-dasharray:none"
         d="m 17.721185,36.668211 v -6.939967 h 0.0012 c -4.44e-4,-0.0071 -8.46e-4,-0.01409 -0.0012,-0.02115 -6.8e-5,-0.949736 0.769863,-1.719668 1.719599,-1.719599 0.949736,-6.9e-5 1.719667,0.769863 1.719599,1.719599 -1.64e-4,0.0071 -3.71e-4,0.01411 -6.21e-4,0.02115 h 6.21e-4 v 6.939967 z" /><path
         id="path16"
         style="fill:#ffffff;stroke:none;stroke-width:0.316577;stroke-dasharray:none"
         d="m 13.420972,36.668211 v -2.409358 h 0.0012 c -4.44e-4,-0.0071 -8.46e-4,-0.01409 -0.0012,-0.02115 -6.9e-5,-0.949736 0.769863,-1.719668 1.719599,-1.719599 0.949736,-6.9e-5 1.719667,0.769863 1.719599,1.719599 -1.64e-4,0.0071 -3.71e-4,0.01411 -6.21e-4,0.02115 h 6.21e-4 v 2.409358 z" /><path
         id="path17"
         style="fill:#ffffff;stroke:none;stroke-width:0.316577;stroke-dasharray:none"
         d="M 26.321613,36.668211 V 20.175606 h 0.0012 c -4.44e-4,-0.0071 -8.46e-4,-0.01409 -0.0012,-0.02114 -6.9e-5,-0.949736 0.769862,-1.719668 1.719598,-1.719599 0.949737,-6.9e-5 1.719668,0.769863 1.719599,1.719599 -1.63e-4,0.0071 -3.7e-4,0.0141 -6.21e-4,0.02114 h 6.21e-4 v 16.492605 z" /><path
         id="path18"
         style="fill:#ffffff;stroke:none;stroke-width:0.316577;stroke-dasharray:none"
         d="m 30.621826,36.668211 v -9.702992 h 0.0012 c -4.44e-4,-0.0071 -8.46e-4,-0.01409 -0.0012,-0.02115 -6.9e-5,-0.949736 0.769862,-1.719667 1.719599,-1.719599 0.949736,-6.8e-5 1.719667,0.769863 1.719598,1.719599 -1.63e-4,0.0071 -3.7e-4,0.01411 -6.21e-4,0.02115 h 6.21e-4 v 9.702992 z" /><path
         id="path19"
         style="fill:#ffffff;stroke:none;stroke-width:0.316577;stroke-dasharray:none"
         d="m 34.92204,36.668211 v -5.085832 h 0.0012 c -4.45e-4,-0.0071 -8.46e-4,-0.01409 -0.0012,-0.02115 -6.9e-5,-0.949737 0.769863,-1.719668 1.719599,-1.719599 0.949736,-6.9e-5 1.719667,0.769862 1.719599,1.719599 -1.64e-4,0.0071 -3.71e-4,0.01411 -6.21e-4,0.02115 h 6.21e-4 v 5.085832 z" /><path
         id="path20"
         style="fill:#ffffff;stroke:none;stroke-width:0.316577;stroke-dasharray:none"
         d="M 39.222253,36.668211 V 26.12904 h 0.0012 c -4.44e-4,-0.0071 -8.46e-4,-0.01409 -0.0012,-0.02115 -6.8e-5,-0.949737 0.769863,-1.719668 1.719599,-1.719599 0.949736,-6.9e-5 1.719667,0.769862 1.719599,1.719599 -1.64e-4,0.0071 -3.71e-4,0.01411 -6.21e-4,0.02115 h 6.21e-4 v 10.539171 z" /><path
         id="path21"
         style="fill:#ffffff;stroke:none;stroke-width:0.316577;stroke-dasharray:none"
         d="M 43.522468,36.668211 V 24.602105 h 0.0012 c -4.44e-4,-0.0071 -8.46e-4,-0.01409 -0.0012,-0.02115 -6.9e-5,-0.949736 0.769862,-1.719667 1.719598,-1.719599 0.949737,-6.8e-5 1.719668,0.769863 1.719599,1.719599 -1.63e-4,0.0071 -3.7e-4,0.01411 -6.21e-4,0.02115 h 6.21e-4 v 12.066106 z" /><path
         id="path22"
         style="fill:#ffffff;stroke:none;stroke-width:0.316577;stroke-dasharray:none"
         d="m 47.822681,36.668211 v -8.939525 h 0.0012 c -4.44e-4,-0.0071 -8.46e-4,-0.01409 -0.0012,-0.02115 -6.9e-5,-0.949736 0.769862,-1.719667 1.719599,-1.719599 0.949736,-6.8e-5 1.719667,0.769863 1.719598,1.719599 -1.63e-4,0.0071 -3.7e-4,0.01411 -6.21e-4,0.02115 h 6.21e-4 v 8.939525 z" /><path
         id="path23"
         style="fill:#ffffff;stroke:none;stroke-width:0.316577;stroke-dasharray:none"
         d="m 52.122894,36.668211 v -5.631165 h 0.0012 c -4.44e-4,-0.0071 -8.46e-4,-0.01409 -0.0012,-0.02115 -6.9e-5,-0.949736 0.769862,-1.719667 1.719599,-1.719599 0.949736,-6.8e-5 1.719667,0.769863 1.719598,1.719599 -1.63e-4,0.0071 -3.7e-4,0.01411 -6.21e-4,0.02115 h 6.21e-4 v 5.631165 z" /><path
         id="path24"
         style="fill:#ffffff;stroke:none;stroke-width:0.316577;stroke-dasharray:none"
         d="M 56.423108,36.668211 V 32.81847 h 0.0012 c -4.44e-4,-0.0071 -8.46e-4,-0.01409 -0.0012,-0.02114 -6.8e-5,-0.949736 0.769863,-1.719667 1.719599,-1.719599 0.949736,-6.8e-5 1.719667,0.769863 1.719599,1.719599 -1.64e-4,0.0071 -3.71e-4,0.01411 -6.21e-4,0.02114 h 6.21e-4 v 3.849741 z" /><path
         id="path25"
         style="fill:#ffffff;stroke:none;stroke-width:0.316577;stroke-dasharray:none"
         d="m 60.723321,36.668211 v -2.61365 h 0.0012 c -4.44e-4,-0.0071 -8.46e-4,-0.01409 -0.0012,-0.02114 -6.8e-5,-0.949737 0.769863,-1.719668 1.719599,-1.719599 0.949736,-6.9e-5 1.719668,0.769862 1.719599,1.719599 -1.64e-4,0.0071 -3.71e-4,0.0141 -6.21e-4,0.02114 h 6.21e-4 v 2.61365 z" /></g></g></svg>
